<svg height='100px' width='100px'  fill="#FFFFFF" xmlns="http://www.w3.org/2000/svg" viewBox="0 0 64 64" x="0px" y="0px"><title>24 SSL protect web secure safe sertificate</title><path d="M31.44,59.16l.67.58.66-.59A85.4,85.4,0,0,0,59.51,11.81l.16-.86-.84-.27a85.4,85.4,0,0,0-54.37.5l-.83.29.18.86A85.62,85.62,0,0,0,31.44,59.16ZM57.37,12.3A83,83,0,0,1,47.25,38.39V36.75h-6v-16h-2v18H47a83.1,83.1,0,0,1-15,18.31A83.65,83.65,0,0,1,6,12.78,83.43,83.43,0,0,1,57.37,12.3Z"></path><path d="M32,51.58l.71-.73A79.41,79.41,0,0,0,40,42.18L38.37,41A77.54,77.54,0,0,1,32,48.72a77,77,0,0,1-7-8.22l-1.61,1.18a78.92,78.92,0,0,0,7.89,9.18Z"></path><path d="M50.19,16.54a77.24,77.24,0,0,1-6.78,16.53l1.75,1a79.19,79.19,0,0,0,7.23-18l.26-1-1-.25a79.48,79.48,0,0,0-39.95.36l-1,.27.28,1c.68,2.36,1.48,4.73,2.38,7l1.86-.73c-.75-1.93-1.44-3.9-2-5.88A77.47,77.47,0,0,1,50.19,16.54Z"></path><path d="M26.25,35.19v-3a3.69,3.69,0,0,0-3.69-3.69H20.44a1.69,1.69,0,0,1-1.69-1.69V23.69a1.92,1.92,0,0,1,1.69-1.94h2.13a1.92,1.92,0,0,1,1.69,1.94v1.69h2V23.69a3.92,3.92,0,0,0-3.69-3.94H20.44a3.92,3.92,0,0,0-3.69,3.94v3.13a3.69,3.69,0,0,0,3.69,3.69h2.13a1.69,1.69,0,0,1,1.69,1.69v3a1.69,1.69,0,0,1-1.69,1.69H20.44a1.69,1.69,0,0,1-1.69-1.69V33.63h-2v1.56a3.69,3.69,0,0,0,3.69,3.69h2.13A3.69,3.69,0,0,0,26.25,35.19Z"></path><path d="M37.25,25.37V23.44a3.69,3.69,0,0,0-3.69-3.69H31.44a3.69,3.69,0,0,0-3.69,3.69v3.38a3.69,3.69,0,0,0,3.69,3.69h2.13a1.69,1.69,0,0,1,1.69,1.69v2.88a1.69,1.69,0,0,1-1.69,1.69H31.44a1.69,1.69,0,0,1-1.69-1.69V33.38h-2v1.69a3.69,3.69,0,0,0,3.69,3.69h2.13a3.69,3.69,0,0,0,3.69-3.69V32.19a3.69,3.69,0,0,0-3.69-3.69H31.44a1.69,1.69,0,0,1-1.69-1.69V23.44a1.69,1.69,0,0,1,1.69-1.69h2.13a1.69,1.69,0,0,1,1.69,1.69v1.94Z"></path></svg>